<?xml version="1.0" encoding="UTF-8"?>
<svg version="1.1" viewBox="0 0 2000 1992" width="1280" height="1280" xmlns="http://www.w3.org/2000/svg">
    <path transform="translate(975,622)"
        d="m0 0h54l21 2 36 6 26 7 23 8 26 11 23 12 18 11 21 14 14 11 15 13 15 14 16 16 22 28 10 15 11 18 10 18 12 25 12 34 8 32 5 26 2 16v72l-3 23-5 25-8 30-10 28-9 20-13 25-13 21-11 16-12 15-9 11-6 7h-2l-2 4-3 1v2l-8 7-15 14-11 9-13 10-13 9-21 13-23 12-20 9-30 11-19 6-28 6-35 4h-66l-29-3-27-6-23-7-24-9-26-11-23-12-19-12-17-12-14-11-12-11-8-7-8-8-7-6-7-8-9-10-11-14-12-17-12-19-14-26-10-22-11-31-8-30-5-27-3-28v-55l3-26 7-35 8-28 9-25 9-20 10-19 10-17 10-15 11-15 11-14 12-13 4-5h2l2-4 8-7 7-7 11-9 9-8 17-12 17-11 20-12 19-10 32-13 29-9 33-7 20-3z"
        fill="#29ab00" />
    <path transform="translate(972,506)"
        d="m0 0h59l37 3 25 4 29 6 25 7 32 11 36 16 16 8 17 9 20 13 12 8 14 10 13 10 10 8 13 12 10 9 25 25 9 11 9 10 12 16 14 19 11 17 14 25 13 25 12 29 13 38 7 25 6 29 4 30 2 24 1 31-1 37-2 24-4 28-5 25-7 27-11 32-13 32-8 17-13 23-11 19-15 22-21 28-13 14-7 8-31 31-11 9-13 11-12 9-18 13-14 9-20 12-12 7-33 15-27 11-33 11-33 8-41 7-23 2-21 1h-40l-29-2-24-3-27-5-30-7-25-8-24-9-38-17-23-12-23-14-17-12-21-16-14-11-10-9-8-7-24-24-7-8-12-13-14-19-13-18-14-22-14-25-10-19-12-28-12-34-7-23-6-26-5-30-3-30-1-15v-52l3-35 3-22 8-37 9-30 11-31 11-25 13-26 12-21 12-19 24-32 12-14 9-11 10-10 7-8 4-4h2v-2l8-7 15-14 14-11 13-10 16-11 20-13 21-12 16-8 21-10 27-11 34-11 28-7 26-5 23-3zm2 9-33 3-33 5-26 6-26 7-42 16-26 12-23 12-24 15-15 10-21 16-14 11-30 28-7 7-7 8-12 13-11 14-15 20-14 21-14 24-12 23-10 21-12 32-9 30-8 31-4 23-3 24-2 31v39l3 37 5 32 5 22 9 33 13 37 11 24 13 26 17 28 8 12 14 19 11 14 12 14 16 17 18 18 8 7 10 9 34 26 14 9 20 12 17 10 32 15 39 15 23 7 28 7 38 6 31 3 20 1h23l37-2 41-6 28-6 26-7 33-12 23-10 25-12 16-9 26-16 18-13 17-13 11-9 15-14 5-4v-2l4-2 9-9 7-8 6-6v-2h2l7-8 13-16 11-15 11-16 8-13 10-17 12-23 10-21 9-24 11-33 9-36 5-29 3-28 2-40-1-31-4-40-5-27-7-28-8-26-10-29-9-20-13-27-16-27-9-14-13-18-9-12-9-11-10-11-7-8-8-8-1-2h-2v-2l-8-7-12-12-11-9-12-10-16-12-14-10-14-9-11-6-17-10-24-12-19-8-35-13-24-7-30-7-34-5-36-3z"
        fill="#29ab00" />
</svg>